<svg width="56" height="56" viewBox="0 0 56 56" fill="none" xmlns="http://www.w3.org/2000/svg">
<g clip-path="url(#clip0_1_2106)">
<path d="M55.7736 28.8608C49.4782 40.0095 39.0949 46.6665 27.9999 46.6665C16.9049 46.6665 6.52157 40.0095 0.226238 28.8608C-0.0747617 28.3265 -0.0747617 27.6755 0.226238 27.1412C6.52157 15.9902 16.9049 9.33318 27.9999 9.33318C39.0949 9.33318 49.4782 15.9902 55.7736 27.1388C56.0746 27.6732 56.0746 28.3265 55.7736 28.8608ZM27.9999 18.6665C22.8526 18.6665 18.6666 22.8525 18.6666 27.9998C18.6666 33.1472 22.8526 37.3332 27.9999 37.3332C33.1472 37.3332 37.3332 33.1472 37.3332 27.9998C37.3332 22.8525 33.1472 18.6665 27.9999 18.6665Z" fill="white"/>
<path d="M53.6668 37.3333C52.3788 37.3333 51.3335 38.3787 51.3335 39.6667V49C51.3335 50.2857 50.2858 51.3333 49.0002 51.3333H39.6668C38.3788 51.3333 37.3335 52.3787 37.3335 53.6667C37.3335 54.9547 38.3788 56 39.6668 56H49.0002C52.8595 56 56.0002 52.8593 56.0002 49V39.6667C56.0002 38.3787 54.9548 37.3333 53.6668 37.3333Z" fill="white"/>
<path d="M2.33333 37.3333C1.04533 37.3333 0 38.3787 0 39.6667V49C0 52.8593 3.14067 56 7 56H16.3333C17.6213 56 18.6667 54.9547 18.6667 53.6667C18.6667 52.3787 17.6213 51.3333 16.3333 51.3333H7C5.71433 51.3333 4.66667 50.2857 4.66667 49V39.6667C4.66667 38.3787 3.62133 37.3333 2.33333 37.3333Z" fill="white"/>
<path d="M49.0002 -0.000167847H39.6668C38.3788 -0.000167847 37.3335 1.04517 37.3335 2.33317C37.3335 3.62117 38.3788 4.6665 39.6668 4.6665H49.0002C50.2858 4.6665 51.3335 5.71417 51.3335 6.99983V16.3332C51.3335 17.6212 52.3788 18.6665 53.6668 18.6665C54.9548 18.6665 56.0002 17.6212 56.0002 16.3332V6.99983C56.0002 3.1405 52.8595 -0.000167847 49.0002 -0.000167847Z" fill="white"/>
<path d="M16.3333 -0.000167847H7C3.14067 -0.000167847 0 3.1405 0 6.99983V16.3332C0 17.6212 1.04533 18.6665 2.33333 18.6665C3.62133 18.6665 4.66667 17.6212 4.66667 16.3332V6.99983C4.66667 5.71417 5.71433 4.6665 7 4.6665H16.3333C17.6213 4.6665 18.6667 3.62117 18.6667 2.33317C18.6667 1.04517 17.6213 -0.000167847 16.3333 -0.000167847Z" fill="white"/>
</g>
<defs>
<clipPath id="clip0_1_2106">
<rect width="56" height="56" fill="white" transform="matrix(1 0 0 -1 0 56)"/>
</clipPath>
</defs>
</svg>
