<svg width="50" height="50" viewBox="0 0 50 50" fill="none" xmlns="http://www.w3.org/2000/svg">
<g clip-path="url(#clip0_1_2094)">
<path d="M15.3751 22.2756C17.6647 27.3285 22.5668 29.528 24.9999 29.528C26.5998 29.528 29.267 28.5763 31.5572 26.4887C30.7198 26.5471 29.8248 26.5767 28.8684 26.5767C28.644 26.5767 28.4085 26.5747 28.1569 26.5707C27.6748 26.942 27.0776 27.1514 26.4578 27.1514H24.42C22.8843 27.1514 21.635 25.9021 21.635 24.3664C21.635 22.8307 22.8843 21.5813 24.42 21.5813H26.4578C27.194 21.5813 27.8825 21.8683 28.3932 22.3632C28.5628 22.3651 28.7301 22.3659 28.8942 22.3659C31.5249 22.3659 33.2585 22.1246 34.3926 21.8336C34.2455 21.4756 34.1653 21.084 34.1653 20.6751V13.6137C34.1653 12.8792 34.438 12.1751 34.9094 11.6311C34.6578 9.67275 34.2012 8.17767 33.5198 7.0748C32.1156 4.80209 29.4083 3.74365 24.9999 3.74365C21.3429 3.74365 18.8175 4.50281 17.2796 6.06445C16.0875 7.27505 15.3967 9.00244 15.0737 11.6113C15.5557 12.1573 15.8345 12.8686 15.8345 13.6137V20.6751C15.8347 21.2626 15.6658 21.8109 15.3751 22.2756Z" fill="white"/>
<path d="M10.3645 22.3422H12.809C13.7293 22.3422 14.476 21.5958 14.476 20.6751V13.6138C14.476 12.9987 14.1419 12.4627 13.6463 12.1739C14.1922 6.39182 16.4234 2.38506 24.9999 2.38506C29.9251 2.38506 32.9996 3.64851 34.6755 6.36084C35.6507 7.9392 36.1198 9.97783 36.3389 12.1826C35.8512 12.4735 35.5238 13.0047 35.5238 13.6137V20.675C35.5238 21.4688 36.0791 22.1316 36.8221 22.2997C35.7445 23.0045 33.5135 23.7244 28.8941 23.7244C28.5199 23.7244 28.1299 23.7196 27.7237 23.7099C27.4859 23.2527 27.0088 22.9398 26.4578 22.9398H24.4201C23.6324 22.9398 22.9936 23.5785 22.9936 24.3663C22.9936 25.1541 23.6324 25.7928 24.4201 25.7928H26.4578C26.9338 25.7928 27.3544 25.5587 27.6134 25.2005C28.0424 25.2113 28.4625 25.2181 28.8684 25.2181C34.0754 25.218 37.3855 24.3292 38.7261 22.5658C38.7832 22.4908 38.8352 22.4161 38.8826 22.3422H39.6357C40.5561 22.3422 41.3026 21.5958 41.3026 20.6751V13.6138C41.3026 12.6933 40.5562 11.9469 39.6357 11.9469H38.7162C38.4575 9.28307 37.8841 7.01539 36.7046 5.1069C34.5815 1.67047 30.7526 0 24.9998 0C19.2466 0 15.4181 1.67047 13.2949 5.10704C12.1155 7.01552 11.5423 9.28293 11.2835 11.947H10.3643C9.44365 11.947 8.69727 12.6933 8.69727 13.614V20.6753C8.69727 21.5958 9.44379 22.3422 10.3645 22.3422Z" fill="white"/>
<path d="M45.1536 43.1066C44.5993 39.6604 43.4582 35.2212 41.1698 33.6439C39.6093 32.5678 34.1616 29.6571 31.8353 28.4143L31.7864 28.3883C31.5202 28.246 31.1953 28.2746 30.958 28.4608C29.7376 29.4187 28.4016 30.064 26.9872 30.3788C26.7373 30.4344 26.532 30.6122 26.4411 30.8516L24.9998 34.6502L23.5585 30.8516C23.4677 30.6121 23.2624 30.4344 23.0124 30.3788C21.598 30.064 20.2618 29.4187 19.0412 28.4608C18.804 28.2744 18.4791 28.2459 18.2129 28.3883C15.9127 29.6172 10.3944 32.589 8.8364 33.6393C6.20096 35.4148 5.05 41.8373 4.84609 43.1067C4.82584 43.2327 4.83753 43.3615 4.88005 43.4816C4.97433 43.7478 7.39173 50.0003 24.9997 50.0003C42.6074 50.0003 45.025 43.7478 45.1194 43.4817C45.1621 43.3613 45.1738 43.2324 45.1536 43.1066ZM36.955 39.1492H29.9811V37.6804H36.955V39.1492Z" fill="white"/>
</g>
<defs>
<clipPath id="clip0_1_2094">
<rect width="50" height="50" fill="white"/>
</clipPath>
</defs>
</svg>
