<?xml version="1.0" encoding="utf-8"?><svg xmlns="http://www.w3.org/2000/svg" xmlns:xlink="http://www.w3.org/1999/xlink"><symbol viewBox="0 0 50 50" id="browser" xmlns="http://www.w3.org/2000/svg"><path d="M22.0703 25H23.5352V23.5352C23.5352 22.7268 22.8786 22.0703 22.0703 22.0703C21.262 22.0703 20.6055 22.7268 20.6055 23.5352C20.6055 24.3435 21.262 25 22.0703 25Z"/><path d="M23.5352 27.9297C23.2403 27.9297 18.8457 27.9297 19.1406 27.9297C18.3323 27.9297 17.6758 28.5862 17.6758 29.3945V30.8594H23.5352V27.9297Z"/><path d="M29.3945 23.5352C29.3945 22.7268 28.738 22.0703 27.9297 22.0703C27.1214 22.0703 26.4648 22.7268 26.4648 23.5352V25H27.9297C28.738 25 29.3945 24.3435 29.3945 23.5352Z"/><path d="M23.5352 33.7891H20.6055V39.6484H29.3945V33.7891H26.4648V35.2539C26.4648 36.0634 25.8095 36.7188 25 36.7188C24.1905 36.7188 23.5352 36.0634 23.5352 35.2539V33.7891Z"/><path d="M0 44.043C0 46.4661 1.97144 48.4375 4.39453 48.4375H45.6055C48.0286 48.4375 50 46.4661 50 44.043V16.2109H0V44.043ZM14.7461 29.3945C14.7461 27.3689 16.1308 25.676 17.9985 25.1694C17.7944 24.6632 17.6758 24.1135 17.6758 23.5352C17.6758 21.1121 19.6472 19.1406 22.0703 19.1406C23.1998 19.1406 24.2207 19.5808 25 20.2835C25.7793 19.5808 26.8002 19.1406 27.9297 19.1406C30.3528 19.1406 32.3242 21.1121 32.3242 23.5352C32.3242 24.1135 32.2056 24.6632 32.0015 25.1694C33.8692 25.676 35.2539 27.3689 35.2539 29.3945V32.3242C35.2539 33.1337 34.5985 33.7891 33.7891 33.7891H32.3242V41.1133C32.3242 41.9228 31.6689 42.5781 30.8594 42.5781H19.1406C18.3311 42.5781 17.6758 41.9228 17.6758 41.1133V33.7891H16.2109C15.4015 33.7891 14.7461 33.1337 14.7461 32.3242V29.3945Z"/><path d="M32.3243 29.3945C32.3243 28.5862 31.6677 27.9297 30.8594 27.9297C30.5645 27.9297 26.17 27.9297 26.4649 27.9297V30.8594H32.3243V29.3945Z"/><path d="M45.6055 1.5625H4.39453C1.97144 1.5625 0 3.53394 0 5.95703V13.2812H50V5.95703C50 3.53394 48.0286 1.5625 45.6055 1.5625ZM7.32155 10.3516C6.51245 10.3516 5.8567 9.69582 5.8567 8.88672C5.8567 8.07762 6.51245 7.42188 7.32155 7.42188C8.13065 7.42188 8.78639 8.07762 8.78639 8.88672C8.78639 9.69582 8.13065 10.3516 7.32155 10.3516ZM13.2786 10.3516C12.4695 10.3516 11.8137 9.69582 11.8137 8.88672C11.8137 8.07762 12.4695 7.42188 13.2786 7.42188C14.0877 7.42188 14.7434 8.07762 14.7434 8.88672C14.7434 9.69582 14.0877 10.3516 13.2786 10.3516ZM19.138 10.3516C18.3289 10.3516 17.6731 9.69582 17.6731 8.88672C17.6731 8.07762 18.3289 7.42188 19.138 7.42188C19.9471 7.42188 20.6028 8.07762 20.6028 8.88672C20.6028 9.69582 19.9471 10.3516 19.138 10.3516ZM42.6758 10.3516H33.7891C32.9796 10.3516 32.3242 9.6962 32.3242 8.88672C32.3242 8.07724 32.9796 7.42188 33.7891 7.42188H42.6758C43.4853 7.42188 44.1406 8.07724 44.1406 8.88672C44.1406 9.6962 43.4853 10.3516 42.6758 10.3516Z"/></symbol><symbol viewBox="0 0 50 50" id="chat" xmlns="http://www.w3.org/2000/svg"><path d="M41.9686 3.36914H7.98254C4.42915 3.36914 1.53809 6.2602 1.53809 9.81359V30.6124C1.53809 34.1589 4.41656 37.0448 7.95965 37.0568V46.4956L21.5229 37.0577H41.9686C45.522 37.0577 48.4131 34.1666 48.4131 30.6124V9.81359C48.4131 6.2602 45.522 3.36914 41.9686 3.36914ZM35.8669 27.5399H14.0842V24.7933H35.8669V27.5399ZM35.8669 21.6805H14.0842V18.934H35.8669V21.6805ZM35.8669 15.8212H14.0842V13.0746H35.8669V15.8212Z"/></symbol><symbol viewBox="0 0 18 18" id="facebook-fill" xmlns="http://www.w3.org/2000/svg"><g clip-path="url(#cclip0_1_909)"><path d="M10.5 10.125H12.375L13.125 7.125H10.5V5.625C10.5 4.8525 10.5 4.125 12 4.125H13.125V1.605C12.8805 1.57275 11.9572 1.5 10.9822 1.5C8.946 1.5 7.5 2.74275 7.5 5.025V7.125H5.25V10.125H7.5V16.5H10.5V10.125Z"/></g><defs><clipPath id="cclip0_1_909"><rect width="18" height="18"/></clipPath></defs></symbol><symbol viewBox="0 0 18 18" id="instagram-fill" xmlns="http://www.w3.org/2000/svg"><g clip-path="url(#dclip0_1_911)"><path d="M9 1.5C11.0378 1.5 11.292 1.5075 12.0915 1.545C12.8903 1.5825 13.434 1.70775 13.9125 1.89375C14.4075 2.08425 14.8245 2.34225 15.2415 2.7585C15.6229 3.13342 15.918 3.58694 16.1063 4.0875C16.2915 4.56525 16.4175 5.10975 16.455 5.9085C16.4903 6.708 16.5 6.96225 16.5 9C16.5 11.0378 16.4925 11.292 16.455 12.0915C16.4175 12.8903 16.2915 13.434 16.1063 13.9125C15.9185 14.4133 15.6233 14.867 15.2415 15.2415C14.8665 15.6227 14.413 15.9178 13.9125 16.1063C13.4347 16.2915 12.8903 16.4175 12.0915 16.455C11.292 16.4903 11.0378 16.5 9 16.5C6.96225 16.5 6.708 16.4925 5.9085 16.455C5.10975 16.4175 4.566 16.2915 4.0875 16.1063C3.58674 15.9184 3.13315 15.6232 2.7585 15.2415C2.37705 14.8666 2.08195 14.4131 1.89375 13.9125C1.70775 13.4347 1.5825 12.8903 1.545 12.0915C1.50975 11.292 1.5 11.0378 1.5 9C1.5 6.96225 1.5075 6.708 1.545 5.9085C1.5825 5.109 1.70775 4.566 1.89375 4.0875C2.08143 3.58663 2.3766 3.13299 2.7585 2.7585C3.13325 2.37692 3.58682 2.0818 4.0875 1.89375C4.566 1.70775 5.109 1.5825 5.9085 1.545C6.708 1.50975 6.96225 1.5 9 1.5ZM9 5.25C8.00544 5.25 7.05161 5.64509 6.34835 6.34835C5.64509 7.05161 5.25 8.00544 5.25 9C5.25 9.99456 5.64509 10.9484 6.34835 11.6517C7.05161 12.3549 8.00544 12.75 9 12.75C9.99456 12.75 10.9484 12.3549 11.6517 11.6517C12.3549 10.9484 12.75 9.99456 12.75 9C12.75 8.00544 12.3549 7.05161 11.6517 6.34835C10.9484 5.64509 9.99456 5.25 9 5.25ZM13.875 5.0625C13.875 4.81386 13.7762 4.5754 13.6004 4.39959C13.4246 4.22377 13.1861 4.125 12.9375 4.125C12.6889 4.125 12.4504 4.22377 12.2746 4.39959C12.0988 4.5754 12 4.81386 12 5.0625C12 5.31114 12.0988 5.5496 12.2746 5.72541C12.4504 5.90123 12.6889 6 12.9375 6C13.1861 6 13.4246 5.90123 13.6004 5.72541C13.7762 5.5496 13.875 5.31114 13.875 5.0625ZM9 6.75C9.59674 6.75 10.169 6.98705 10.591 7.40901C11.0129 7.83097 11.25 8.40326 11.25 9C11.25 9.59674 11.0129 10.169 10.591 10.591C10.169 11.0129 9.59674 11.25 9 11.25C8.40326 11.25 7.83097 11.0129 7.40901 10.591C6.98705 10.169 6.75 9.59674 6.75 9C6.75 8.40326 6.98705 7.83097 7.40901 7.40901C7.83097 6.98705 8.40326 6.75 9 6.75Z"/></g><defs><clipPath id="dclip0_1_911"><rect width="18" height="18"/></clipPath></defs></symbol><symbol viewBox="0 0 18 18" id="mail-fill" xmlns="http://www.w3.org/2000/svg"><g clip-path="url(#eclip0_1_901)"><path d="M2.25 2.25H15.75C15.9489 2.25 16.1397 2.32902 16.2803 2.46967C16.421 2.61032 16.5 2.80109 16.5 3V15C16.5 15.1989 16.421 15.3897 16.2803 15.5303C16.1397 15.671 15.9489 15.75 15.75 15.75H2.25C2.05109 15.75 1.86032 15.671 1.71967 15.5303C1.57902 15.3897 1.5 15.1989 1.5 15V3C1.5 2.80109 1.57902 2.61032 1.71967 2.46967C1.86032 2.32902 2.05109 2.25 2.25 2.25ZM9.045 8.76225L4.236 4.6785L3.26475 5.8215L9.05475 10.7378L14.7405 5.81775L13.7595 4.683L9.04575 8.76225H9.045Z"/></g><defs><clipPath id="eclip0_1_901"><rect width="18" height="18"/></clipPath></defs></symbol><symbol viewBox="0 0 50 50" id="phone" xmlns="http://www.w3.org/2000/svg"><path d="M35.5184 0H14.4814C12.468 0 10.8428 1.63253 10.8428 3.64223V46.3614C10.8428 48.3693 12.468 50 14.4814 50H35.5184C37.5281 50 39.157 48.3693 39.157 46.3614V3.64223C39.157 1.63253 37.5281 0 35.5184 0ZM19.809 2.21194H30.1945C30.4569 2.21194 30.67 2.60367 30.67 3.08833C30.67 3.57299 30.4569 3.96655 30.1945 3.96655H19.809C19.5448 3.96655 19.3352 3.57299 19.3352 3.08833C19.3352 2.60367 19.5448 2.21194 19.809 2.21194ZM25.0017 46.4051C23.7208 46.4051 22.6786 45.3629 22.6786 44.0802C22.6786 42.7975 23.7208 41.759 25.0017 41.759C26.279 41.759 27.3212 42.7975 27.3212 44.0802C27.3212 45.3629 26.279 46.4051 25.0017 46.4051ZM36.4313 38.4447H13.5703V6.14569H36.4313V38.4447Z"/></symbol><symbol viewBox="0 0 18 18" id="phone-fill" xmlns="http://www.w3.org/2000/svg"><g clip-path="url(#fclip0_1_905)"><path d="M15.75 12.315V14.967C15.7501 15.1569 15.6781 15.3397 15.5487 15.4786C15.4192 15.6176 15.2419 15.7022 15.0525 15.7155C14.7247 15.738 14.457 15.75 14.25 15.75C7.62225 15.75 2.25 10.3778 2.25 3.75C2.25 3.543 2.26125 3.27525 2.2845 2.9475C2.29779 2.75808 2.38244 2.58076 2.52135 2.45131C2.66027 2.32186 2.84312 2.24991 3.033 2.25H5.685C5.77803 2.24991 5.86777 2.28439 5.9368 2.34677C6.00582 2.40914 6.0492 2.49494 6.0585 2.5875C6.07575 2.76 6.0915 2.89725 6.1065 3.0015C6.25555 4.04169 6.561 5.05337 7.0125 6.00225C7.08375 6.15225 7.03725 6.3315 6.90225 6.4275L5.28375 7.584C6.27334 9.88984 8.11091 11.7274 10.4167 12.717L11.5717 11.1015C11.619 11.0355 11.6878 10.9882 11.7664 10.9677C11.8449 10.9473 11.9281 10.9551 12.0015 10.9897C12.9503 11.4404 13.9617 11.7451 15.0015 11.8935C15.1058 11.9085 15.243 11.925 15.414 11.9415C15.5064 11.951 15.592 11.9944 15.6543 12.0634C15.7165 12.1324 15.7509 12.2221 15.7507 12.315H15.75Z"/></g><defs><clipPath id="fclip0_1_905"><rect width="18" height="18"/></clipPath></defs></symbol><symbol viewBox="0 0 56 56" id="retina" xmlns="http://www.w3.org/2000/svg"><g clip-path="url(#hclip0_1_2106)"><path d="M55.7736 28.8608C49.4782 40.0095 39.0949 46.6665 27.9999 46.6665C16.9049 46.6665 6.52157 40.0095 0.226238 28.8608C-0.0747617 28.3265 -0.0747617 27.6755 0.226238 27.1412C6.52157 15.9902 16.9049 9.33318 27.9999 9.33318C39.0949 9.33318 49.4782 15.9902 55.7736 27.1388C56.0746 27.6732 56.0746 28.3265 55.7736 28.8608ZM27.9999 18.6665C22.8526 18.6665 18.6666 22.8525 18.6666 27.9998C18.6666 33.1472 22.8526 37.3332 27.9999 37.3332C33.1472 37.3332 37.3332 33.1472 37.3332 27.9998C37.3332 22.8525 33.1472 18.6665 27.9999 18.6665Z"/><path d="M53.6668 37.3333C52.3788 37.3333 51.3335 38.3787 51.3335 39.6667V49C51.3335 50.2857 50.2858 51.3333 49.0002 51.3333H39.6668C38.3788 51.3333 37.3335 52.3787 37.3335 53.6667C37.3335 54.9547 38.3788 56 39.6668 56H49.0002C52.8595 56 56.0002 52.8593 56.0002 49V39.6667C56.0002 38.3787 54.9548 37.3333 53.6668 37.3333Z"/><path d="M2.33333 37.3333C1.04533 37.3333 0 38.3787 0 39.6667V49C0 52.8593 3.14067 56 7 56H16.3333C17.6213 56 18.6667 54.9547 18.6667 53.6667C18.6667 52.3787 17.6213 51.3333 16.3333 51.3333H7C5.71433 51.3333 4.66667 50.2857 4.66667 49V39.6667C4.66667 38.3787 3.62133 37.3333 2.33333 37.3333Z"/><path d="M49.0002 -0.000167847H39.6668C38.3788 -0.000167847 37.3335 1.04517 37.3335 2.33317C37.3335 3.62117 38.3788 4.6665 39.6668 4.6665H49.0002C50.2858 4.6665 51.3335 5.71417 51.3335 6.99983V16.3332C51.3335 17.6212 52.3788 18.6665 53.6668 18.6665C54.9548 18.6665 56.0002 17.6212 56.0002 16.3332V6.99983C56.0002 3.1405 52.8595 -0.000167847 49.0002 -0.000167847Z"/><path d="M16.3333 -0.000167847H7C3.14067 -0.000167847 0 3.1405 0 6.99983V16.3332C0 17.6212 1.04533 18.6665 2.33333 18.6665C3.62133 18.6665 4.66667 17.6212 4.66667 16.3332V6.99983C4.66667 5.71417 5.71433 4.6665 7 4.6665H16.3333C17.6213 4.6665 18.6667 3.62117 18.6667 2.33317C18.6667 1.04517 17.6213 -0.000167847 16.3333 -0.000167847Z"/></g><defs><clipPath id="hclip0_1_2106"><rect width="56" height="56" transform="matrix(1 0 0 -1 0 56)"/></clipPath></defs></symbol><symbol viewBox="0 0 50 50" id="support" xmlns="http://www.w3.org/2000/svg"><g clip-path="url(#iclip0_1_2094)"><path d="M15.3751 22.2756C17.6647 27.3285 22.5668 29.528 24.9999 29.528C26.5998 29.528 29.267 28.5763 31.5572 26.4887C30.7198 26.5471 29.8248 26.5767 28.8684 26.5767C28.644 26.5767 28.4085 26.5747 28.1569 26.5707C27.6748 26.942 27.0776 27.1514 26.4578 27.1514H24.42C22.8843 27.1514 21.635 25.9021 21.635 24.3664C21.635 22.8307 22.8843 21.5813 24.42 21.5813H26.4578C27.194 21.5813 27.8825 21.8683 28.3932 22.3632C28.5628 22.3651 28.7301 22.3659 28.8942 22.3659C31.5249 22.3659 33.2585 22.1246 34.3926 21.8336C34.2455 21.4756 34.1653 21.084 34.1653 20.6751V13.6137C34.1653 12.8792 34.438 12.1751 34.9094 11.6311C34.6578 9.67275 34.2012 8.17767 33.5198 7.0748C32.1156 4.80209 29.4083 3.74365 24.9999 3.74365C21.3429 3.74365 18.8175 4.50281 17.2796 6.06445C16.0875 7.27505 15.3967 9.00244 15.0737 11.6113C15.5557 12.1573 15.8345 12.8686 15.8345 13.6137V20.6751C15.8347 21.2626 15.6658 21.8109 15.3751 22.2756Z"/><path d="M10.3645 22.3422H12.809C13.7293 22.3422 14.476 21.5958 14.476 20.6751V13.6138C14.476 12.9987 14.1419 12.4627 13.6463 12.1739C14.1922 6.39182 16.4234 2.38506 24.9999 2.38506C29.9251 2.38506 32.9996 3.64851 34.6755 6.36084C35.6507 7.9392 36.1198 9.97783 36.3389 12.1826C35.8512 12.4735 35.5238 13.0047 35.5238 13.6137V20.675C35.5238 21.4688 36.0791 22.1316 36.8221 22.2997C35.7445 23.0045 33.5135 23.7244 28.8941 23.7244C28.5199 23.7244 28.1299 23.7196 27.7237 23.7099C27.4859 23.2527 27.0088 22.9398 26.4578 22.9398H24.4201C23.6324 22.9398 22.9936 23.5785 22.9936 24.3663C22.9936 25.1541 23.6324 25.7928 24.4201 25.7928H26.4578C26.9338 25.7928 27.3544 25.5587 27.6134 25.2005C28.0424 25.2113 28.4625 25.2181 28.8684 25.2181C34.0754 25.218 37.3855 24.3292 38.7261 22.5658C38.7832 22.4908 38.8352 22.4161 38.8826 22.3422H39.6357C40.5561 22.3422 41.3026 21.5958 41.3026 20.6751V13.6138C41.3026 12.6933 40.5562 11.9469 39.6357 11.9469H38.7162C38.4575 9.28307 37.8841 7.01539 36.7046 5.1069C34.5815 1.67047 30.7526 0 24.9998 0C19.2466 0 15.4181 1.67047 13.2949 5.10704C12.1155 7.01552 11.5423 9.28293 11.2835 11.947H10.3643C9.44365 11.947 8.69727 12.6933 8.69727 13.614V20.6753C8.69727 21.5958 9.44379 22.3422 10.3645 22.3422Z"/><path d="M45.1536 43.1066C44.5993 39.6604 43.4582 35.2212 41.1698 33.6439C39.6093 32.5678 34.1616 29.6571 31.8353 28.4143L31.7864 28.3883C31.5202 28.246 31.1953 28.2746 30.958 28.4608C29.7376 29.4187 28.4016 30.064 26.9872 30.3788C26.7373 30.4344 26.532 30.6122 26.4411 30.8516L24.9998 34.6502L23.5585 30.8516C23.4677 30.6121 23.2624 30.4344 23.0124 30.3788C21.598 30.064 20.2618 29.4187 19.0412 28.4608C18.804 28.2744 18.4791 28.2459 18.2129 28.3883C15.9127 29.6172 10.3944 32.589 8.8364 33.6393C6.20096 35.4148 5.05 41.8373 4.84609 43.1067C4.82584 43.2327 4.83753 43.3615 4.88005 43.4816C4.97433 43.7478 7.39173 50.0003 24.9997 50.0003C42.6074 50.0003 45.025 43.7478 45.1194 43.4817C45.1621 43.3613 45.1738 43.2324 45.1536 43.1066ZM36.955 39.1492H29.9811V37.6804H36.955V39.1492Z"/></g><defs><clipPath id="iclip0_1_2094"><rect width="50" height="50"/></clipPath></defs></symbol><symbol viewBox="0 0 18 18" id="twitter-fill" xmlns="http://www.w3.org/2000/svg"><g clip-path="url(#jclip0_1_913)"><path d="M16.6215 4.24219C16.0489 4.49546 15.4417 4.66179 14.82 4.73569C15.4753 4.34376 15.9658 3.72695 16.2 3.00019C15.585 3.36619 14.9108 3.62269 14.208 3.76144C13.736 3.25637 13.1103 2.92141 12.4282 2.80863C11.7462 2.69584 11.046 2.81156 10.4365 3.13778C9.82695 3.464 9.3423 3.98245 9.05785 4.61253C8.77339 5.24262 8.70507 5.94902 8.86351 6.62194C7.61634 6.55943 6.39626 6.23533 5.28247 5.67069C4.16869 5.10604 3.18611 4.31347 2.39851 3.34444C2.11973 3.82328 1.97323 4.36761 1.97401 4.92169C1.97401 6.00919 2.52751 6.96994 3.36901 7.53244C2.87102 7.51676 2.38398 7.38227 1.94851 7.14019V7.17919C1.94866 7.90346 2.19929 8.6054 2.65789 9.16598C3.1165 9.72657 3.75487 10.1113 4.46476 10.2549C4.00247 10.3802 3.51774 10.3987 3.04726 10.3089C3.24741 10.9324 3.63751 11.4776 4.16295 11.8683C4.68839 12.259 5.32286 12.4755 5.97751 12.4877C5.32687 12.9987 4.58189 13.3764 3.78517 13.5993C2.98845 13.8222 2.1556 13.8859 1.33426 13.7867C2.76803 14.7088 4.43708 15.1983 6.14176 15.1967C11.9115 15.1967 15.0668 10.4169 15.0668 6.27169C15.0668 6.13669 15.063 6.00019 15.057 5.86669C15.6712 5.42281 16.2012 4.87295 16.6223 4.24294L16.6215 4.24219Z"/></g><defs><clipPath id="jclip0_1_913"><rect width="18" height="18"/></clipPath></defs></symbol><symbol viewBox="0 0 50 50" id="ui" xmlns="http://www.w3.org/2000/svg"><g clip-path="url(#kclip0_1_2098)"><path d="M48.5352 0H42.5781C41.7685 0 41.1133 0.655176 41.1133 1.46484V2.92969H29.1247C28.518 1.22832 26.9072 0 25 0C23.0928 0 21.482 1.22832 20.8753 2.92969H8.88672V1.46484C8.88672 0.655176 8.23154 0 7.42188 0H1.46484C0.655176 0 0 0.655176 0 1.46484V7.32422C0 8.13389 0.655176 8.78906 1.46484 8.78906H7.42188C8.23154 8.78906 8.88672 8.13389 8.88672 7.32422V5.83984H14.9027C9.81904 9.01572 6.46699 14.5937 6.06631 20.8413C4.30869 21.4166 3.02734 23.0527 3.02734 25C3.02734 27.4232 4.99863 29.3945 7.42188 29.3945C9.84512 29.3945 11.8164 27.4232 11.8164 25C11.8164 23.1309 10.6386 21.5417 8.99023 20.9075C9.49004 13.9422 14.3502 8.07148 21.1106 6.39648C21.8418 7.81025 23.3015 8.78906 25 8.78906C26.6985 8.78906 28.1582 7.81025 28.8894 6.39648C35.6498 8.07139 40.51 13.9421 41.0098 20.9074C39.3614 21.5417 38.1836 23.1309 38.1836 25C38.1836 27.4232 40.1549 29.3945 42.5781 29.3945C45.0014 29.3945 46.9727 27.4232 46.9727 25C46.9727 23.0527 45.6913 21.4166 43.9337 20.8413C43.533 14.5937 40.181 9.03525 35.0973 5.85938H41.1133V7.32422C41.1133 8.13389 41.7685 8.78906 42.5781 8.78906H48.5352C49.3448 8.78906 50 8.13389 50 7.32422V1.46484C50 0.655176 49.3448 0 48.5352 0Z"/><path d="M34.9659 48.1831C34.1997 45.8385 31.9923 44.043 29.3946 44.043H20.6056C18.0079 44.043 15.8005 45.8385 15.0343 48.1831C14.7389 49.0871 15.5079 50 16.4591 50H33.5411C34.4922 50 35.2613 49.0871 34.9659 48.1831Z"/><path d="M37.9375 30.047L26.4649 12.8379V26.7348C28.1662 27.3415 29.3945 28.9522 29.3945 30.8595C29.3945 33.2827 27.4233 35.254 25 35.254C22.5768 35.254 20.6055 33.2827 20.6055 30.8595C20.6055 28.9522 21.8338 27.3415 23.5352 26.7348V12.8379L12.0625 30.047C11.6748 30.6277 11.7521 31.4017 12.2456 31.8952C14.9348 34.5844 16.6537 38.0487 17.3171 41.7648C18.3347 41.3521 19.4414 41.1134 20.6055 41.1134H29.3945C30.5586 41.1134 31.6653 41.352 32.6829 41.7647C33.3463 38.0483 35.0652 34.5844 37.7544 31.8952C38.248 31.4017 38.3252 30.6277 37.9375 30.047Z"/><path d="M25 29.3945C24.1918 29.3945 23.5352 30.0512 23.5352 30.8594C23.5352 31.6676 24.1918 32.3242 25 32.3242C25.8082 32.3242 26.4648 31.6676 26.4648 30.8594C26.4648 30.0512 25.8082 29.3945 25 29.3945Z"/></g><defs><clipPath id="kclip0_1_2098"><rect width="50" height="50"/></clipPath></defs></symbol><symbol viewBox="0 0 18 18" id="youtube-fill" xmlns="http://www.w3.org/2000/svg"><g clip-path="url(#lclip0_1_915)"><path d="M16.1572 4.8735C16.5 6.21 16.5 9 16.5 9C16.5 9 16.5 11.79 16.1572 13.1265C15.9667 13.8653 15.4095 14.4465 14.7037 14.643C13.422 15 9 15 9 15C9 15 4.58025 15 3.29625 14.643C2.5875 14.4435 2.031 13.863 1.84275 13.1265C1.5 11.79 1.5 9 1.5 9C1.5 9 1.5 6.21 1.84275 4.8735C2.03325 4.13475 2.5905 3.5535 3.29625 3.357C4.58025 3 9 3 9 3C9 3 13.422 3 14.7037 3.357C15.4125 3.5565 15.969 4.137 16.1572 4.8735ZM7.5 11.625L12 9L7.5 6.375V11.625Z"/></g><defs><clipPath id="lclip0_1_915"><rect width="18" height="18"/></clipPath></defs></symbol></svg>