<?xml version="1.0" encoding="utf-8"?><svg viewBox="0 0 56 56" xmlns="http://www.w3.org/2000/svg" xmlns:xlink="http://www.w3.org/1999/xlink"><style>:root>svg{display:none}:root>svg:target{display:block}</style><svg fill="none" viewBox="0 0 50 50" id="browser" xmlns="http://www.w3.org/2000/svg"><path d="M22.07 25h1.465v-1.465a1.466 1.466 0 0 0-2.93 0c0 .808.657 1.465 1.465 1.465ZM23.535 27.93h-4.394c-.809 0-1.465.656-1.465 1.465v1.464h5.86v-2.93ZM29.395 23.535a1.466 1.466 0 0 0-2.93 0V25h1.465c.808 0 1.465-.657 1.465-1.465ZM23.535 33.79h-2.93v5.858h8.79V33.79h-2.93v1.465a1.464 1.464 0 1 1-2.93 0v-1.465Z" fill="#fff"/><path d="M0 44.043a4.4 4.4 0 0 0 4.395 4.395h41.21A4.4 4.4 0 0 0 50 44.043V16.211H0v27.832Zm14.746-14.648c0-2.026 1.385-3.719 3.252-4.226a4.357 4.357 0 0 1-.322-1.634 4.4 4.4 0 0 1 4.394-4.394c1.13 0 2.15.44 2.93 1.143a4.361 4.361 0 0 1 2.93-1.143 4.4 4.4 0 0 1 4.394 4.394c0 .578-.118 1.128-.322 1.634 1.867.507 3.252 2.2 3.252 4.226v2.93c0 .809-.655 1.464-1.465 1.464h-1.465v7.324c0 .81-.655 1.465-1.465 1.465H19.141c-.81 0-1.465-.655-1.465-1.465V33.79H16.21c-.81 0-1.465-.655-1.465-1.465v-2.93Z" fill="#fff"/><path d="M32.324 29.395c0-.809-.656-1.465-1.465-1.465h-4.394v2.93h5.86v-1.465ZM45.605 1.563H4.395A4.4 4.4 0 0 0 0 5.957v7.324h50V5.957a4.4 4.4 0 0 0-4.395-4.394ZM7.322 10.351a1.465 1.465 0 1 1 0-2.93 1.465 1.465 0 0 1 0 2.93Zm5.957 0a1.465 1.465 0 1 1 0-2.93 1.465 1.465 0 0 1 0 2.93Zm5.859 0a1.465 1.465 0 1 1 0-2.93 1.465 1.465 0 0 1 0 2.93Zm23.538 0h-8.887a1.464 1.464 0 1 1 0-2.93h8.887a1.464 1.464 0 1 1 0 2.93Z" fill="#fff"/></svg><svg fill="none" viewBox="0 0 50 50" id="chat" xmlns="http://www.w3.org/2000/svg"><path d="M41.969 3.37H7.983a6.452 6.452 0 0 0-6.445 6.444v20.798a6.451 6.451 0 0 0 6.422 6.445v9.439l13.563-9.438h20.446a6.452 6.452 0 0 0 6.444-6.446V9.814a6.452 6.452 0 0 0-6.444-6.445Zm-6.102 24.17H14.084v-2.747h21.783v2.747Zm0-5.86H14.084v-2.746h21.783v2.746Zm0-5.859H14.084v-2.746h21.783v2.746Z" fill="#fff"/></svg><svg fill="none" viewBox="0 0 18 18" id="facebook-fill" xmlns="http://www.w3.org/2000/svg"><g clip-path="url(#ca)"><path d="M10.5 10.125h1.875l.75-3H10.5v-1.5c0-.772 0-1.5 1.5-1.5h1.125v-2.52a21.126 21.126 0 0 0-2.143-.105C8.946 1.5 7.5 2.743 7.5 5.025v2.1H5.25v3H7.5V16.5h3v-6.375Z" fill="#fff"/></g><defs><clipPath id="ca"><path fill="#fff" d="M0 0h18v18H0z"/></clipPath></defs></svg><svg fill="none" viewBox="0 0 18 18" id="instagram-fill" xmlns="http://www.w3.org/2000/svg"><g clip-path="url(#da)"><path d="M9 1.5c2.038 0 2.292.008 3.091.045.8.038 1.343.163 1.822.349.495.19.912.448 1.329.865.38.374.676.828.864 1.329.185.477.311 1.022.349 1.82.035.8.045 1.054.045 3.092 0 2.038-.008 2.292-.045 3.091-.037.8-.163 1.343-.349 1.822-.188.5-.483.954-.865 1.329a3.687 3.687 0 0 1-1.329.864c-.477.185-1.022.311-1.82.349-.8.035-1.054.045-3.092.045-2.038 0-2.292-.008-3.091-.045-.8-.037-1.343-.163-1.821-.349a3.668 3.668 0 0 1-1.33-.865 3.678 3.678 0 0 1-.864-1.329c-.186-.477-.311-1.022-.349-1.82C1.51 11.291 1.5 11.037 1.5 9c0-2.038.008-2.292.045-3.091.038-.8.163-1.343.349-1.821.187-.501.483-.955.865-1.33a3.673 3.673 0 0 1 1.329-.864c.478-.186 1.021-.311 1.82-.349C6.708 1.51 6.963 1.5 9 1.5Zm0 3.75a3.75 3.75 0 1 0 0 7.5 3.75 3.75 0 0 0 0-7.5Zm4.875-.188a.938.938 0 1 0-1.875 0 .938.938 0 0 0 1.875 0ZM9 6.75a2.25 2.25 0 1 1 0 4.5 2.25 2.25 0 0 1 0-4.5Z" fill="#fff"/></g><defs><clipPath id="da"><path fill="#fff" d="M0 0h18v18H0z"/></clipPath></defs></svg><svg fill="none" viewBox="0 0 18 18" id="mail-fill" xmlns="http://www.w3.org/2000/svg"><g clip-path="url(#ea)"><path d="M2.25 2.25h13.5a.75.75 0 0 1 .75.75v12a.75.75 0 0 1-.75.75H2.25A.75.75 0 0 1 1.5 15V3a.75.75 0 0 1 .75-.75Zm6.795 6.512L4.236 4.678l-.971 1.144 5.79 4.916 5.686-4.92-.982-1.135-4.713 4.08h-.001Z" fill="#fff"/></g><defs><clipPath id="ea"><path fill="#fff" d="M0 0h18v18H0z"/></clipPath></defs></svg><svg fill="none" viewBox="0 0 50 50" id="phone" xmlns="http://www.w3.org/2000/svg"><path d="M35.518 0H14.481a3.64 3.64 0 0 0-3.638 3.642v42.72A3.637 3.637 0 0 0 14.48 50h21.037a3.64 3.64 0 0 0 3.639-3.639V3.642A3.641 3.641 0 0 0 35.518 0ZM19.81 2.212h10.386c.262 0 .475.392.475.876 0 .485-.213.879-.476.879H19.81c-.264 0-.474-.394-.474-.879 0-.484.21-.876.474-.876Zm5.193 44.193a2.323 2.323 0 1 1 0-4.646 2.322 2.322 0 0 1 0 4.646Zm11.43-7.96H13.57v-32.3h22.861v32.3Z" fill="#fff"/></svg><svg fill="none" viewBox="0 0 18 18" id="phone-fill" xmlns="http://www.w3.org/2000/svg"><g clip-path="url(#fa)"><path d="M15.75 12.315v2.652a.75.75 0 0 1-.697.748c-.328.023-.596.035-.803.035-6.628 0-12-5.372-12-12 0-.207.011-.475.034-.803a.75.75 0 0 1 .749-.697h2.652a.375.375 0 0 1 .374.337c.017.173.032.31.047.414.15 1.04.455 2.052.907 3.001.07.15.024.33-.11.426l-1.62 1.156a9.785 9.785 0 0 0 5.134 5.133l1.155-1.616a.347.347 0 0 1 .43-.111 10.424 10.424 0 0 0 3.412.951.375.375 0 0 1 .337.374h-.001Z" fill="#fff"/></g><defs><clipPath id="fa"><path fill="#fff" d="M0 0h18v18H0z"/></clipPath></defs></svg><svg fill="none" viewBox="0 0 56 56" id="retina" xmlns="http://www.w3.org/2000/svg"><g clip-path="url(#ha)" fill="#fff"><path d="M55.774 28.86C49.478 40.01 39.094 46.667 28 46.667c-11.095 0-21.478-6.656-27.774-17.805a1.75 1.75 0 0 1 0-1.72C6.522 15.991 16.905 9.333 28 9.333c11.095 0 21.478 6.657 27.774 17.806a1.755 1.755 0 0 1 0 1.722ZM28 18.667c-5.147 0-9.333 4.186-9.333 9.334 0 5.147 4.186 9.333 9.333 9.333s9.333-4.186 9.333-9.333c0-5.148-4.186-9.334-9.333-9.334ZM53.667 37.333a2.334 2.334 0 0 0-2.334 2.334V49A2.337 2.337 0 0 1 49 51.333h-9.333a2.334 2.334 0 0 0 0 4.667H49c3.86 0 7-3.14 7-7v-9.333a2.334 2.334 0 0 0-2.333-2.334ZM2.333 37.333A2.334 2.334 0 0 0 0 39.667V49c0 3.86 3.14 7 7 7h9.333a2.334 2.334 0 0 0 0-4.667H7A2.337 2.337 0 0 1 4.667 49v-9.333a2.334 2.334 0 0 0-2.334-2.334ZM49 0h-9.333a2.334 2.334 0 0 0 0 4.667H49A2.337 2.337 0 0 1 51.334 7v9.333a2.334 2.334 0 0 0 4.666 0V7c0-3.86-3.14-7-7-7ZM16.333 0H7C3.14 0 0 3.14 0 7v9.333a2.334 2.334 0 0 0 4.667 0V7A2.337 2.337 0 0 1 7 4.667h9.333a2.334 2.334 0 0 0 0-4.667Z"/></g><defs><clipPath id="ha"><path fill="#fff" transform="matrix(1 0 0 -1 0 56)" d="M0 0h56v56H0z"/></clipPath></defs></svg><svg fill="none" viewBox="0 0 50 50" id="support" xmlns="http://www.w3.org/2000/svg"><g clip-path="url(#ia)" fill="#fff"><path d="M15.375 22.276c2.29 5.052 7.192 7.252 9.625 7.252 1.6 0 4.267-.952 6.557-3.04a38.718 38.718 0 0 1-3.4.083c-.482.371-1.08.58-1.7.58H24.42a2.788 2.788 0 0 1-2.785-2.785 2.788 2.788 0 0 1 2.785-2.785h2.038c.736 0 1.425.287 1.935.782l.501.003c2.63 0 4.364-.241 5.499-.532a3.042 3.042 0 0 1-.228-1.159v-7.061c0-.735.273-1.439.744-1.983-.251-1.958-.708-3.453-1.39-4.556-1.403-2.273-4.11-3.331-8.52-3.331-3.656 0-6.181.759-7.72 2.32-1.192 1.211-1.882 2.938-2.205 5.547.482.546.76 1.258.76 2.003v7.061c0 .588-.168 1.136-.459 1.6Z"/><path d="M10.364 22.342h2.445c.92 0 1.667-.746 1.667-1.667v-7.061c0-.615-.334-1.151-.83-1.44.546-5.782 2.777-9.789 11.354-9.789 4.925 0 8 1.264 9.675 3.976.976 1.578 1.445 3.617 1.664 5.822-.488.29-.815.822-.815 1.43v7.062c0 .794.555 1.457 1.298 1.625-1.078.704-3.309 1.424-7.928 1.424-.374 0-.764-.004-1.17-.014a1.426 1.426 0 0 0-1.266-.77H24.42a1.427 1.427 0 0 0 0 2.853h2.038c.476 0 .896-.234 1.155-.592.43.01.85.017 1.255.017 5.207 0 8.518-.889 9.858-2.652.057-.075.11-.15.157-.224h.753c.92 0 1.667-.746 1.667-1.667v-7.061c0-.92-.747-1.667-1.667-1.667h-.92c-.258-2.664-.832-4.932-2.011-6.84C34.582 1.67 30.753 0 25 0s-9.582 1.67-11.705 5.107c-1.18 1.909-1.753 4.176-2.011 6.84h-.92c-.92 0-1.667.746-1.667 1.667v7.061c0 .92.747 1.667 1.668 1.667ZM45.154 43.107c-.555-3.447-1.696-7.886-3.984-9.463-1.56-1.076-7.008-3.987-9.335-5.23l-.049-.026a.76.76 0 0 0-.828.073c-1.22.958-2.556 1.603-3.97 1.918a.761.761 0 0 0-.547.473L25 34.65l-1.442-3.798a.76.76 0 0 0-.546-.473c-1.414-.315-2.75-.96-3.97-1.918a.76.76 0 0 0-.83-.073c-2.3 1.23-7.818 4.201-9.376 5.251-2.635 1.776-3.786 8.198-3.99 9.468a.761.761 0 0 0 .034.375C4.974 43.748 7.392 50 25 50c17.607 0 20.025-6.252 20.12-6.518a.76.76 0 0 0 .034-.375Zm-8.199-3.958h-6.974V37.68h6.974v1.47Z"/></g><defs><clipPath id="ia"><path fill="#fff" d="M0 0h50v50H0z"/></clipPath></defs></svg><svg fill="none" viewBox="0 0 18 18" id="twitter-fill" xmlns="http://www.w3.org/2000/svg"><g clip-path="url(#ja)"><path d="M16.622 4.242c-.573.253-1.18.42-1.802.494A3.147 3.147 0 0 0 16.2 3a6.268 6.268 0 0 1-1.992.761 3.136 3.136 0 0 0-5.344 2.86 8.906 8.906 0 0 1-6.465-3.277 3.136 3.136 0 0 0 .97 4.188 3.126 3.126 0 0 1-1.42-.392v.04a3.139 3.139 0 0 0 2.516 3.075 3.156 3.156 0 0 1-1.418.054 3.139 3.139 0 0 0 2.93 2.179 6.296 6.296 0 0 1-4.643 1.299 8.872 8.872 0 0 0 4.808 1.41c5.77 0 8.925-4.78 8.925-8.925 0-.135-.004-.272-.01-.405a6.372 6.372 0 0 0 1.565-1.624Z" fill="#fff"/></g><defs><clipPath id="ja"><path fill="#fff" d="M0 0h18v18H0z"/></clipPath></defs></svg><svg fill="none" viewBox="0 0 50 50" id="ui" xmlns="http://www.w3.org/2000/svg"><g clip-path="url(#ka)" fill="#fff"><path d="M48.535 0h-5.957c-.81 0-1.465.655-1.465 1.465V2.93H29.125C28.518 1.228 26.907 0 25 0s-3.518 1.228-4.125 2.93H8.887V1.465C8.887.655 8.232 0 7.422 0H1.465C.655 0 0 .655 0 1.465v5.86c0 .809.655 1.464 1.465 1.464h5.957c.81 0 1.465-.655 1.465-1.465V5.84h6.016C9.819 9.016 6.467 14.594 6.066 20.84 4.31 21.417 3.027 23.053 3.027 25a4.4 4.4 0 0 0 4.395 4.395A4.4 4.4 0 0 0 11.816 25c0-1.87-1.177-3.458-2.826-4.093.5-6.965 5.36-12.836 12.12-14.51.732 1.413 2.192 2.392 3.89 2.392s3.158-.979 3.89-2.393c6.76 1.675 11.62 7.546 12.12 14.511-1.649.635-2.826 2.224-2.826 4.093a4.4 4.4 0 0 0 4.394 4.395A4.4 4.4 0 0 0 46.973 25c0-1.947-1.282-3.583-3.04-4.159-.4-6.247-3.752-11.806-8.836-14.982h6.016v1.465c0 .81.656 1.465 1.465 1.465h5.957c.81 0 1.465-.655 1.465-1.465v-5.86C50 .656 49.345 0 48.535 0ZM34.966 48.183c-.766-2.344-2.974-4.14-5.571-4.14h-8.79c-2.597 0-4.805 1.796-5.57 4.14-.296.904.473 1.817 1.424 1.817h17.082c.951 0 1.72-.913 1.425-1.817Z"/><path d="m37.938 30.047-11.473-17.21v13.898c1.701.607 2.93 2.217 2.93 4.125A4.4 4.4 0 0 1 25 35.254a4.4 4.4 0 0 1-4.395-4.394c0-1.908 1.229-3.518 2.93-4.125V12.838L12.062 30.047c-.387.58-.31 1.355.184 1.848 2.689 2.69 4.408 6.154 5.071 9.87a8.725 8.725 0 0 1 3.288-.652h8.79c1.164 0 2.27.239 3.288.652.663-3.717 2.382-7.18 5.071-9.87.494-.493.571-1.267.184-1.848Z"/><path d="M25 29.395a1.466 1.466 0 0 0 0 2.93 1.466 1.466 0 0 0 0-2.93Z"/></g><defs><clipPath id="ka"><path fill="#fff" d="M0 0h50v50H0z"/></clipPath></defs></svg><svg fill="none" viewBox="0 0 18 18" id="youtube-fill" xmlns="http://www.w3.org/2000/svg"><g clip-path="url(#la)"><path d="M16.157 4.873C16.5 6.21 16.5 9 16.5 9s0 2.79-.343 4.127c-.19.738-.748 1.32-1.453 1.516C13.422 15 9 15 9 15s-4.42 0-5.704-.357a2.108 2.108 0 0 1-1.453-1.517C1.5 11.79 1.5 9 1.5 9s0-2.79.343-4.127c.19-.738.748-1.32 1.453-1.516C4.58 3 9 3 9 3s4.422 0 5.704.357c.708.2 1.265.78 1.453 1.516ZM7.5 11.625 12 9 7.5 6.375v5.25Z" fill="#fff"/></g><defs><clipPath id="la"><path fill="#fff" d="M0 0h18v18H0z"/></clipPath></defs></svg></svg>